#!OML:ASF F:\VICON\USERDATA\INSTALL\rory3\rory3.ASF
:FULLY-SPECIFIED
:DEGREES
572
root -3.5901 17.968 -3.27047 15.7713 0.805134 9.8326
lowerback 15.6169 -0.103122 0.229954
upperback 7.42619 0.0969262 7.20369
thorax -0.855728 -0.0658459 7.52217
lowerneck -7.13989 -8.90018 -10.1954
upperneck 32.2423 -13.3823 8.18933
head 13.2974 -6.06302 3.10253
rclavicle -2.38542e-014 -9.54166e-015
rhumerus 17.4888 -29.9101 -89.9588
rradius 37.1274
rwrist -1.9312
rhand -28.3459 -22.0257
rfingers 7.12502
rthumb -1.71996 -51.9985
lclavicle -2.38542e-014 -9.54166e-015
lhumerus -10.4508 -58.8038 94.8873
lradius 74.5546
lwrist 74.9514
lhand -22.648 57.7271
lfingers 7.12502
lthumb 3.783 447.673
rfemur -35.2515 -11.6265 16.3849
rtibia 37.569
rfoot -20.173 -10.653
rtoes 9.84221
lfemur -28.2842 -0.0971531 -20.6259
ltibia 39.6424
lfoot -0.822502 -1.58855
ltoes -28.3575
573
root -3.62415 17.9724 -3.29273 16.2964 -0.4661 9.61551
lowerback 15.0797 0.606068 -0.270429
upperback 7.33746 0.942226 7.46114
thorax -0.783025 0.33859 7.95332
lowerneck -6.88158 -9.13599 -10.4042
upperneck 32.1451 -13.6221 7.98485
head 13.2318 -6.21747 3.0282
rclavicle -3.97569e-014 -4.45278e-014
rhumerus 17.1637 -28.3806 -90.1783
rradius 36.3982
rwrist -2.12973
rhand -27.1218 -21.7355
rfingers 7.12502
rthumb -0.537745 -51.7146
lclavicle -3.97569e-014 -4.45278e-014
lhumerus -11.4701 -57.8934 95.3286
lradius 74.261
lwrist 75.183
lhand -23.6156 57.0818
lfingers 7.12502
lthumb 2.84861 447.043
rfemur -36.0143 -10.6653 16.5769
rtibia 37.3395
rfoot -19.6182 -10.2579
rtoes 9.74117
lfemur -28.464 1.1525 -20.7663
ltibia 39.496
lfoot -1.09407 -0.846144
ltoes -29.7642
574
root -3.63795 17.9826 -3.30757 16.3128 -0.347047 9.79602
lowerback 15.029 0.685812 -0.224801
upperback 7.28415 1.06169 7.70105
thorax -0.831135 0.398034 8.17243
lowerneck -6.58132 -9.31873 -10.7804
upperneck 31.9692 -13.7973 7.92004
head 13.1437 -6.35101 3.04771
rclavicle -1.43125e-014 -6.36111e-015
rhumerus 16.7582 -26.3877 -90.2374
rradius 35.6933
rwrist -2.35874
rhand -26.3551 -22.3821
rfingers 7.12502
rthumb 0.20278 -52.3617
lclavicle -1.43125e-014 -6.36111e-015
lhumerus -12.4621 -56.544 95.7494
lradius 74.1865
lwrist 75.2406
lhand -24.5222 57.4501
lfingers 7.12502
lthumb 1.97299 447.421
rfemur -35.8922 -10.743 16.3797
rtibia 37.1327
rfoot -19.5552 -9.89709
rtoes 10.6497
lfemur -28.202 1.05796 -20.9895
ltibia 39.241
lfoot -1.18331 -0.32191
ltoes -30.8513
575
root -3.65024 17.9914 -3.32243 16.4215 -0.252563 9.96515
lowerback 14.8915 0.726107 -0.235605
upperback 7.22448 1.12026 7.97967
thorax -0.832586 0.424389 8.4783
lowerneck -6.30546 -9.44793 -11.2578
upperneck 31.7881 -13.8759 7.84542
head 13.0565 -6.45501 3.09398
rclavicle 4.77083e-014 5.725e-014
rhumerus 16.2583 -23.8706 -90.0605
rradius 35.014
rwrist -3.02846
rhand -25.3183 -22.6371
rfingers 7.12502
rthumb 1.20416 -52.6135
lclavicle 4.77083e-014 5.725e-014
lhumerus -13.4814 -54.9033 96.1942
lradius 74.2813
lwrist 75.2225
lhand -25.9475 57.4917
lfingers 7.12502
lthumb 0.596482 447.471
rfemur -35.9149 -10.7531 16.1905
rtibia 36.919
rfoot -19.4075 -9.65763
rtoes 11.4409
lfemur -28.0387 0.877747 -21.1853
ltibia 38.8762
lfoot -1.03342 0.0959056
ltoes -31.1399
576
root -3.66199 17.9958 -3.33704 16.4977 -0.252433 10.2233
lowerback 14.8289 0.909499 -0.242267
upperback 7.19627 1.36418 8.13255
thorax -0.868387 0.545866 8.61234
lowerneck -6.16542 -9.7045 -11.4238
upperneck 31.6375 -14.1885 7.78263
head 13.0137 -6.61672 3.05084
rclavicle 3.81667e-014 1.27222e-014
rhumerus 15.8431 -21.8388 -90.0484
rradius 34.407
rwrist -3.44009
rhand -23.8124 -22.6373
rfingers 7.12502
rthumb 2.65853 -52.6005
lclavicle 3.81667e-014 1.27222e-014
lhumerus -14.236 -53.9111 96.3086
lradius 74.2955
lwrist 75.1939
lhand -27.0916 56.9531
lfingers 7.12502
lthumb -0.508571 446.932
rfemur -35.9653 -10.7782 15.9137
rtibia 36.7894
rfoot -19.2021 -9.37795
rtoes 11.76
lfemur -27.7968 0.827546 -21.5105
ltibia 38.3776
lfoot -0.908049 0.390958
ltoes -31.4231
577
root -3.67293 18.0021 -3.35178 16.4226 -0.149015 10.4715
lowerback 14.9508 1.17321 0.00168008
upperback 7.23033 1.74564 8.15784
thorax -0.950398 0.743285 8.4331
lowerneck -6.07957 -10.1078 -11.2521
upperneck 31.4052 -14.7883 7.82504
head 12.961 -6.85152 2.94495
rclavicle -4.45278e-014 -2.8625e-014
rhumerus 15.5821 -20.4948 -90.3305
rradius 33.849
rwrist -3.18729
rhand -22.3716 -22.5583
rfingers 7.12502
rthumb 4.04997 -52.4996
lclavicle -4.45278e-014 -2.8625e-014
lhumerus -14.7668 -53.846 96.1447
lradius 74.1816
lwrist 75.6084
lhand -27.4119 57.0629
lfingers 7.12502
lthumb -0.817896 447.041
rfemur -35.7832 -10.8586 15.6335
rtibia 36.6973
rfoot -19.1226 -9.10615
rtoes 11.829
lfemur -27.369 0.71515 -21.7877
ltibia 37.7988
lfoot -0.88758 0.608681
ltoes -31.8177
578
root -3.68335 18.007 -3.36826 16.4005 0.0479533 10.6955
lowerback 15.0268 1.33489 0.251028
upperback 7.24516 1.99546 8.22946
thorax -1.00702 0.873959 8.32351
lowerneck -5.87864 -10.448 -11.1319
upperneck 31.0547 -15.2582 7.78092
head 12.814 -7.05365 2.84112
rclavicle -1.90833e-014 -3.18055e-014
rhumerus 15.5025 -19.0807 -90.7131
rradius 33.1209
rwrist -2.48637
rhand -20.8253 -22.3208
rfingers 7.12502
rthumb 5.54307 -52.2283
lclavicle -1.90833e-014 -3.18055e-014
lhumerus -15.2947 -53.6975 96.0325
lradius 74.0611
lwrist 76.4757
lhand -27.0222 58.3691
lfingers 7.12502
lthumb -0.441541 448.348
rfemur -35.6678 -10.9736 15.4099
rtibia 36.6618
rfoot -19.1726 -8.88841
rtoes 11.5665
lfemur -27.0092 0.544073 -22.0035
ltibia 37.1163
lfoot -0.877234 0.829232
ltoes -31.9543
579
root -3.69273 18.0115 -3.38354 16.4089 0.221559 10.8625
lowerback 15.0882 1.45394 0.458405
upperback 7.19915 2.19002 8.36458
thorax -1.11433 0.977 8.31774
lowerneck -5.56881 -10.7217 -11.172
upperneck 30.8142 -15.6144 7.69966
head 12.6898 -7.23091 2.77518
rclavicle -9.54166e-015 2.22639e-014
rhumerus 15.2178 -17.3482 -90.8994
rradius 32.6111
rwrist -1.86411
rhand -18.513 -22.564
rfingers 7.12502
rthumb 7.77523 -52.4011
lclavicle -9.54166e-015 2.22639e-014
lhumerus -15.8537 -53.0136 96.0236
lradius 74.0283
lwrist 76.9721
lhand -29.0318 56.8561
lfingers 7.12502
lthumb -2.38242 446.822
rfemur -35.6281 -11.0519 15.2436
rtibia 36.6602
rfoot -19.2754 -8.67021
rtoes 11.6641
lfemur -26.6688 0.407397 -22.1534
ltibia 36.3552
lfoot -0.908293 1.00362
ltoes -31.6302
580
root -3.70308 18.0161 -3.39567 16.2911 0.224113 11.2656
lowerback 15.2755 1.64549 0.317375
upperback 7.19941 2.43487 8.4339
thorax -1.25631 1.09873 8.43395
lowerneck -5.46987 -11.0033 -11.2816
upperneck 30.78 -15.9929 7.67634
head 12.7119 -7.40764 2.72721
rclavicle 4.13472e-014 5.40694e-014
rhumerus 14.9281 -15.8322 -91.2226
rradius 32.2839
rwrist -1.27866
rhand -15.7467 -22.877
rfingers 7.12502
rthumb 10.4445 -52.5976
lclavicle 4.13472e-014 5.40694e-014
lhumerus -16.3666 -52.2619 95.9475
lradius 74.0101
lwrist 77.1837
lhand -29.0446 57.8373
lfingers 7.12502
lthumb -2.39479 447.804
rfemur -35.4775 -10.9962 14.7359
rtibia 36.63
rfoot -19.1722 -8.48781
rtoes 12.5858
lfemur -26.1368 0.269709 -22.5664
ltibia 35.5898
lfoot -0.985363 1.17661
ltoes -30.8814
581
root -3.71459 18.0214 -3.40841 16.2257 0.106989 11.6971
lowerback 15.4151 1.89272 0.0830841
upperback 7.25472 2.73257 8.4959
thorax -1.32717 1.24283 8.58768
lowerneck -5.55075 -11.2999 -11.3799
upperneck 30.7384 -16.3749 7.63872
head 12.766 -7.58006 2.65961
rclavicle -2.54444e-014 4.77083e-014
rhumerus 14.7354 -14.7133 -91.7011
rradius 31.9668
rwrist -0.593499
rhand -13.6469 -22.3483
rfingers 7.12502
rthumb 12.4696 -51.9563
lclavicle -2.54444e-014 4.77083e-014
lhumerus -16.787 -51.6297 95.8575
lradius 73.9534
lwrist 77.6918
lhand -28.0815 60.9521
lfingers 7.12502
lthumb -1.46464 269.073
rfemur -35.3818 -10.7424 14.1408
rtibia 36.5524
rfoot -18.9666 -8.33
rtoes 13.9877
lfemur -25.6788 0.1914 -23.0222
ltibia 34.8654
lfoot -1.09048 1.26431
ltoes -30.937
582
root -3.72522 18.0269 -3.42072 16.3191 0.0903049 11.6697
lowerback 15.4389 2.10563 0.403065
upperback 7.23499 3.06069 8.62854
thorax -1.40178 1.41274 8.48711
lowerneck -5.3266 -11.5743 -11.4885
upperneck 30.4619 -16.7684 7.74839
head 12.6772 -7.75911 2.66567
rclavicle -9.54166e-015 -3.18055e-015
rhumerus 14.2583 -13.4728 -92.016
rradius 32.0262
rwrist -0.587897
rhand -12.2596 -21.6285
rfingers 7.12502
rthumb 13.8068 -51.1503
lclavicle -9.54166e-015 -3.18055e-015
lhumerus -17.3156 -51.1799 95.8149
lradius 73.8671
lwrist 78.0942
lhand -25.8478 66.892
lfingers 7.12502
lthumb 0.692779 263.129
rfemur -35.4517 -10.4849 14.1204
rtibia 36.4555
rfoot -18.8341 -8.2608
rtoes 14.7018
lfemur -25.4694 0.20237 -22.948
ltibia 34.1955
lfoot -1.17832 1.22255
ltoes -31.3348
583
root -3.7325 18.0318 -3.43408 16.3523 0.342635 11.6514
lowerback 15.6245 2.21653 0.918405
upperback 7.17996 3.29369 8.73832
thorax -1.57243 1.54064 8.25929
lowerneck -5.24279 -11.8689 -11.427
upperneck 30.2755 -17.1833 7.7526
head 12.6282 -7.93413 2.59444
rclavicle 6.36111e-015 -4.13472e-014
rhumerus 13.8152 -12.2951 -92.3497
rradius 32.2054
rwrist -0.846586
rhand -10.5375 -21.5077
rfingers 7.12502
rthumb 15.466 -50.909
lclavicle 6.36111e-015 -4.13472e-014
lhumerus -17.7879 -50.7045 95.6707
lradius 73.7563
lwrist 77.9788
lhand -29.8124 56.2969
lfingers 7.12502
lthumb -3.13626 86.2535
rfemur -35.4079 -10.3912 14.1163
rtibia 36.3606
rfoot -18.9041 -8.26948
rtoes 15.004
lfemur -25.2553 -0.0117013 -22.806
ltibia 33.5976
lfoot -1.11852 1.20234
ltoes -31.3468
584
root -3.73908 18.0363 -3.44766 16.4167 0.57813 11.9286
lowerback 15.7474 2.32154 1.12417
upperback 7.10543 3.47464 8.76601
thorax -1.73282 1.63804 8.1315
lowerneck -5.3202 -12.1656 -11.0399
upperneck 30.2843 -17.526 7.31914
head 12.5979 -8.08019 2.31431
rclavicle 4.77083e-014 5.08889e-014
rhumerus 13.4354 -11.389 -92.7857
rradius 32.2484
rwrist -0.972621
rhand -8.71323 -21.6486
rfingers 7.12502
rthumb 17.2225 -50.9054
lclavicle 4.77083e-014 5.08889e-014
lhumerus -18.2375 -50.1175 95.5282
lradius 73.81
lwrist 78.0801
lhand -30.5903 56.7552
lfingers 7.12502
lthumb -3.8875 86.6995
rfemur -35.3568 -10.3121 13.7644
rtibia 36.259
rfoot -19.1247 -8.23107
rtoes 15.7739
lfemur -25.1036 -0.277947 -22.9938
ltibia 33.0671
lfoot -0.937478 1.16075
ltoes -31.5934
585
root -3.74883 18.04 -3.46235 16.6493 0.542871 12.1541
lowerback 15.6805 2.5179 1.18874
upperback 6.99713 3.7457 8.77131
thorax -1.84666 1.77757 8.04764
lowerneck -5.22297 -12.4033 -10.8045
upperneck 30.237 -17.8312 7.09343
head 12.5421 -8.21202 2.15382
rclavicle -1.90833e-014 -3.81667e-014
rhumerus 13.0654 -10.54 -93.259
rradius 32.2194
rwrist -1.22085
rhand -7.39375 -21.7738
rfingers 7.12502
rthumb 18.4921 -50.9149
lclavicle -1.90833e-014 -3.81667e-014
lhumerus -18.7469 -49.7167 95.4474
lradius 73.9879
lwrist 78.472
lhand -30.644 57.8556
lfingers 7.12502
lthumb -3.93938 87.7989
rfemur -35.5999 -10.1171 13.489
rtibia 36.1778
rfoot -19.1007 -8.23241
rtoes 16.0813
lfemur -25.1046 -0.322888 -23.1962
ltibia 32.5345
lfoot -0.800745 1.12526
ltoes -32.2543
